<svg width="235" height="235" viewBox="0 0 235 235" fill="none" xmlns="http://www.w3.org/2000/svg">
<rect x="19" y="57" width="197" height="122" fill="white"/>
<path d="M117.093 0C52.3837 0 0 52.4648 0 117.093C0 181.721 52.4648 234.186 117.093 234.186C181.721 234.186 234.186 181.721 234.186 117.093C234.186 52.4648 181.802 0 117.093 0ZM90.6579 117.093C90.6579 133.473 77.3593 146.772 60.9792 146.772C44.5992 146.772 31.3005 133.473 31.3005 117.093C31.3005 100.713 44.5992 87.4144 60.9792 87.4144C77.3593 87.4144 90.6579 100.713 90.6579 117.093ZM143.528 117.093C143.528 100.713 156.827 87.4144 173.207 87.4144C189.587 87.4144 202.886 100.713 202.886 117.093C202.886 133.473 189.587 146.772 173.207 146.772C156.827 146.772 143.528 133.473 143.528 117.093ZM175.234 175.234L171.261 171.261L199.318 143.204C213.671 128.851 213.671 105.497 199.318 91.0634C192.344 84.0897 183.1 80.2785 173.288 80.2785C163.476 80.2785 154.232 84.0897 147.258 91.0634L91.1445 147.177C74.6022 163.719 47.5995 163.719 30.9761 147.177C22.9483 139.149 18.4884 128.446 18.4884 117.093C18.4884 105.741 22.9483 95.0368 30.9761 87.0089L59.0331 58.952L63.0065 62.9254L34.9495 90.9823C27.9758 97.956 24.1646 107.2 24.1646 117.012C24.1646 126.824 27.9758 136.068 34.9495 143.042C49.3024 157.395 72.6561 157.395 87.09 143.042L143.204 86.9278C151.232 78.9 161.936 74.4401 173.288 74.4401C184.641 74.4401 195.344 78.9 203.372 86.9278C219.914 103.47 219.914 130.473 203.372 147.096L175.234 175.234Z" fill="black"/>
<path d="M178.64 117.093C178.64 114.093 176.207 111.66 173.207 111.66C170.207 111.66 167.774 114.093 167.774 117.093C167.774 120.093 170.207 122.526 173.207 122.526C176.207 122.526 178.64 120.093 178.64 117.093Z" fill="black"/>
<path d="M55.5463 117.093C55.5463 120.093 57.9789 122.526 60.9792 122.526C63.9795 122.526 66.4122 120.093 66.4122 117.093C66.4122 114.093 63.9795 111.66 60.9792 111.66C57.9789 111.66 55.5463 114.093 55.5463 117.093Z" fill="black"/>
</svg>
